<?xml version="1.0" encoding="utf-8"?>
<!-- Generator: Adobe Illustrator 24.1.1, SVG Export Plug-In . SVG Version: 6.00 Build 0)  -->
<svg version="1.1" id="Layer_1" xmlns="http://www.w3.org/2000/svg" xmlns:xlink="http://www.w3.org/1999/xlink" x="0px" y="0px"
	 viewBox="0 0 13.4 13.5" style="enable-background:new 0 0 13.4 13.5;" xml:space="preserve">
<style type="text/css">
	.st0{fill:#B17EB7;}
	.st1{fill:none;stroke:#FFFFFF;stroke-width:0.25;stroke-miterlimit:10;}
	.st2{fill:#FFFFFF;}
	.st3{font-family:'RobotoMono-Regular';}
	.st4{font-size:2.4335px;}
</style>
<path class="st0" d="M12.8,10.2L12,9.4c-1-0.8-0.8-1.9-0.9-2c0-0.1,0-0.6,0-0.7s0-0.3,0-0.3c0.3-1.2,1.2-0.8,1.2-0.8
	c0.4,0,0.4-0.3,0.4-0.3C13,5,12.9,4.7,12.9,4.7l-0.5-0.5c-0.2-0.5-0.7-0.6-0.7-0.6c0.1-0.5-0.2-0.8-0.2-0.8C11.6,3,11,3.6,11,3.6
	c-0.6,0.2-0.4,0.3-0.8,0.5C9.8,4.3,8.9,4.8,8.5,4.5C8.1,4.3,5,4.1,3.6,4.1c-0.4,0-0.7,0.1-1,0.2C2.5,4.1,2.2,3.7,2,3.2
	c-0.3-0.7-0.4-1.5-0.1-2C2,1,2.1,0.8,2.3,0.8C2.5,0.7,2.8,1,2.9,1c0.2,0.1,0.4,0.1,0.6,0s0.1-0.4,0-0.6C3.4,0.4,2.8-0.1,2.1,0
	c-0.4,0.1-0.8,0.4-1,0.9C0.8,1.6,0.8,2.6,1.2,3.5C1.4,4,1.7,4.4,2.1,4.8C2,4.9,1.9,5,1.9,5C1.8,5.3,1.5,5.9,1.6,6.4S1.4,7.3,1.3,7.3
	C1.2,7.4,0.6,7.8,0.6,7.8L0,9.8c-0.1,0.4,0.4,0.6,0.4,0.6c0.2,0,0.2-0.6,0.2-0.6l0.4-1l1.7-0.6c0,0,0,0.7,0,0.8S2.6,9.3,2.6,9.3
	c0.1,0.5,1.2,1.5,1.2,1.5h0.8v-0.3c-0.1-0.3-0.5-0.2-0.5-0.2L3.5,9.4c0.7-0.5,1-1.4,1-1.4c0.3,0.3,1.8-0.2,1.8-0.2l0.9,0.1L6.9,10
	c-0.1,0.5,0,0.7,0,0.7h0.4c0.3,0,0.5,0,0.5-0.3s-0.4-0.2-0.4-0.2l1-2c1-0.6,1.6,0.3,1.6,0.3v0.3c0.4,0.5,2.4,1.9,2.4,1.9h1v-0.3
	C13.2,10.1,12.8,10.2,12.8,10.2z"/>
<circle class="st1" cx="6.5" cy="6" r="1.5"/>
<text transform="matrix(1 0 0 1 5.8106 6.7249)" class="st2 st3 st4">5</text>
</svg>
