<?xml version="1.0" encoding="utf-8"?>
<!-- Generator: Adobe Illustrator 24.1.1, SVG Export Plug-In . SVG Version: 6.00 Build 0)  -->
<svg version="1.1" id="Layer_1" xmlns="http://www.w3.org/2000/svg" xmlns:xlink="http://www.w3.org/1999/xlink" x="0px" y="0px"
	 viewBox="0 0 60 60" style="enable-background:new 0 0 60 60;" xml:space="preserve">
<g>
	<path d="M38.4,45.6l7.7-6.1c0.1-0.1,0.2-0.3,0.2-0.5c0-0.2-0.1-0.4-0.2-0.5l-7.8-6c-0.1-0.1-0.3-0.1-0.4,0
		c-0.1,0.1-0.2,0.2-0.2,0.4l0,3.2l-7.1,0c-0.5,0-1-0.3-1.1-0.8l-0.2-0.8l-1.1,4.7c-0.2,1-0.7,1.9-1.2,2.6c0.5,0.2,1.1,0.3,1.7,0.3
		l9,0l0,3.2c0,0.1,0.1,0.3,0.2,0.4C38.1,45.8,38.3,45.7,38.4,45.6z"/>
	<path d="M23.6,18.3c-0.1,0-0.1-0.1-0.2-0.1l-6.1-2.7c-0.6-0.3-1.3-0.2-1.8,0.1c-0.5,0.4-0.9,1-0.9,1.6l0,3.9c0,0.7,0.4,1.4,1.1,1.7
		l4.5,2.2c0.3,0.1,0.5,0.4,0.6,0.7l0,0.1l1-4.2C22.1,20.3,22.7,19.2,23.6,18.3z"/>
	<path d="M23.5,42.2c1.4-0.7,2.4-1.9,2.8-3.4L29.5,25c0.1-0.5,0.6-0.9,1.1-0.9l7.1,0l0,3.2c0,0.1,0.1,0.3,0.2,0.4
		c0.1,0.1,0.3,0,0.4,0l7.7-6.1c0.1-0.1,0.2-0.3,0.2-0.5c0-0.2-0.1-0.4-0.2-0.5l-7.8-6c-0.1-0.1-0.3-0.1-0.4,0
		c-0.1,0.1-0.2,0.2-0.2,0.4l0,3.2l-9,0c-2.3,0-4.3,1.6-4.9,3.9l-2.9,12.6c-0.1,0.3-0.3,0.6-0.6,0.7l-4.5,2.3c-0.6,0.3-1,1-1,1.7
		l0,3.9c0,0.6,0.3,1.2,0.9,1.6c0.5,0.3,1.2,0.4,1.8,0.1L23.5,42.2z"/>
</g>
</svg>
